Patient4_TMGait_0pt7_02_right_39_EMG.mot
version=1
nRows=37
nColumns=33
inDegrees=no
endheader
time	1LAddLong	2LGlutMax	3LGlutMed	4LIliopsoas	5LSemiMemb	6LBicFemLong	7LRecFem	8LVastMed	9LVastLat	10LGasMed	11LTibAnt	12lTibPost	13LPeroneusLong	14LSol	15LExtDigLong	16LFlexDigLong	17RAddLong	18RGlutMax	19RGlutMed	20RIliopsoas	21RSemiMemb	22RBicFemLong	23RRecFem	24RVastMed	25RVastLat	26RGasMed	27RTibAnt	28RTibPost	29RPeroneusLong	30RSol	31RExtDigLong	32RFlexDigLong
44.48	0.010376	-0.85525	0.27344	0.014496	-0.027924	-0.086212	0.17868	0.015717	0.18127	-0.24353	0.11353	-0.004272	-0.24674	0.098724	0.92743	0.001831	-0.007935	-0.14648	-1.1832	0.1944	0.49927	-1.4078	0.72449	0.15076	-0.06073	0.006561	0.15488	-0.021973	0.24551	0.040283	-0.00061	-0.056458
44.481	0.006561	-0.80536	0.29266	-0.026855	-0.003815	-0.048523	0.19104	0.011902	0.18249	-0.1088	0.1358	0.009308	-0.24353	0.16754	0.26657	-0.00824	-0.082092	-0.10544	-1.2695	0.12863	0.23102	-1.5344	0.61981	0.12528	-0.02594	0.12207	0.1857	-0.020447	0.36209	-0.27969	0.001526	-0.044861
44.482	-0.007629	-0.74402	0.30212	-0.021973	0.024567	-0.053253	0.19089	0.008545	0.16312	-0.13687	-0.03067	-0.001068	-0.14542	0.32288	0.93613	-0.00885	-0.11292	-0.044708	-1.2555	0.072327	-0.15137	-1.385	0.51468	0.1355	-0.028076	0.15289	0.12543	-0.024414	0.90836	0.10971	0.004578	-0.035706
44.483	-0.008087	-0.67978	0.29816	0.020142	0.047607	-0.12177	0.22629	-0.002747	0.15137	-0.24597	0.16586	0.005951	0.053253	0.43869	0.70068	-0.002594	-0.062103	-0.2385	-1.3048	0.015411	-0.33951	-0.80383	0.58746	-0.039215	-0.040131	-0.0354	0.11475	-0.034943	0.90805	0.13016	-0.003357	-0.030365
44.484	-0.011749	-0.64316	0.29709	0.061798	0.041809	-0.080109	0.23697	-0.005188	0.15274	-0.23926	0.06485	0.011749	0.085602	0.41351	-0.32898	0.018158	-0.005798	-0.36057	-1.2555	-0.036774	-0.080414	-0.36194	0.61264	-0.16876	-0.068817	-0.092621	0.15656	-0.028839	0.41473	0.12924	0.004883	-0.022125
44.485	-0.00946	-0.62057	0.31097	0.04776	0.029755	-0.027618	0.24689	-0.001373	0.14358	-0.18463	-0.15228	-0.000458	0.052185	0.28046	-0.92941	0.010529	-0.051727	-0.50323	-0.96817	-0.048065	0.17014	-0.031433	0.54688	-0.050354	-0.023041	-0.034943	0.26398	-0.054779	-0.3064	-0.060272	-0.001373	-0.03067
44.486	-0.010529	-0.44907	0.31662	0.010529	0.004425	-0.034332	0.23346	-0.001526	0.13458	-0.12558	-0.15762	0.001526	-0.017853	0.12909	-1.1868	0.010834	-0.15945	-0.24002	-0.38864	-0.014801	0.30899	0.78995	0.31204	0.15045	0.022736	-0.039063	0.3302	-0.06485	-0.73685	-0.1387	0.002594	-0.02655
44.487	-0.002594	-0.35507	0.30441	-0.002594	0.006104	-0.071259	0.21088	0.001373	0.11368	-0.082092	-0.18921	0.009155	-0.02243	-0.071716	-0.93414	0.006256	-0.1326	0.16663	-0.28686	-0.19226	0.2211	0.92895	0.30472	0.23529	0.005646	-0.064697	0.22751	0.025787	-0.2214	-0.26581	-0.000458	-0.026398
44.488	0.009766	-0.27847	0.29129	0.036163	0.029755	-0.095215	0.20279	0.003052	0.11429	-0.053711	-0.10361	0.009613	-0.020142	-0.29159	-1.2312	-0.000305	-0.05249	-0.079041	-0.35629	-0.22385	0.16357	0.50415	0.31067	0.11154	0.21378	-0.10864	0.1062	-0.019989	1.0039	-0.32608	0.003052	-0.010681
44.489	0.014801	-0.21606	0.30502	0.012665	0.065002	-0.050659	0.17029	0.006409	0.10361	-0.038452	-0.13779	0.005951	-0.051727	-0.41779	-0.66467	-0.003204	-0.004272	-0.2301	-0.3215	-0.39719	0.17227	0.42847	0.3537	0.1004	0.58731	0.17822	0.13428	-0.082245	-0.00473	-0.30258	-0.003052	-0.012512
44.49	0.015717	-0.19898	0.30838	-0.003357	0.09079	0.050659	0.17166	0.004883	0.074005	-0.058899	-0.21301	0.005341	-0.065613	-0.37933	-0.20783	0.011902	-0.010834	-0.16357	-0.37796	-0.35675	0.097809	0.60867	0.26047	0.22537	0.42709	0.27725	0.008392	0.000153	0.43442	-0.31586	-0.002899	-0.00946
44.491	0.014954	-0.21088	0.34012	0.005341	0.066071	0.063629	0.17242	-0.00061	0.064392	-0.072784	-0.12726	0.002747	-0.089111	-0.19302	0.21637	0.013275	-0.030365	-0.32745	-0.21774	-0.22659	0.047302	0.27023	0.26276	0.1326	0.005493	0.042419	-0.18585	0.021057	0.18768	-0.10544	-0.003967	-0.012817
44.492	0.016785	-0.23789	0.31189	0.007019	0.043945	0.068512	0.1886	0.007019	0.046539	-0.054932	-0.021973	0.007782	-0.10971	-0.14511	0.25681	0.029449	-0.002441	-0.4538	-0.49576	-0.12466	-0.047607	0.015259	0.042725	0.099792	-0.25101	-0.30792	-0.013885	-0.044861	0.10696	0.068359	-0.002747	-0.023499
44.493	0.01236	-0.23041	0.30685	-0.022583	0.032806	0.039368	0.19333	0.007935	0.027466	-0.021362	-0.01358	0.005188	-0.13428	-0.14053	0.23865	0.029449	0.01236	-0.47623	-0.95062	0.09964	-0.18524	0.26459	0.051422	0.085907	-0.32974	-0.23666	0.041656	-0.17883	-0.094452	0.37216	-0.002441	-0.027313
44.494	0.014801	-0.18845	0.30914	-0.054932	0.023499	0.018921	0.21271	0.015869	0.014954	-0.020447	-0.000153	0.008392	-0.14725	-0.11169	0.20828	0.017395	0.026855	-0.29678	-0.79758	0.2095	-0.29251	0.59631	0.13565	0.041809	-0.32745	-0.072021	0.046234	-0.12894	-0.42297	0.33676	-0.002441	-0.022888
44.495	0.008392	-0.17044	0.30624	-0.037842	0.016785	0.006866	0.20538	0.010376	0.00412	-0.02533	0.026398	0.002594	-0.12955	-0.062561	0.32638	0.012817	0.046844	-0.35339	-0.65079	0.10315	-0.21927	0.38498	-0.000153	0.098267	-0.22537	0.28168	0.069733	-0.024719	-0.67719	0.15945	0.00351	-0.026093
44.496	0.003815	-0.10376	0.29221	-0.019836	0.017395	0.005798	0.19989	0.013123	0.014343	-0.035248	0.010071	0.004272	-0.12985	-0.005188	0.62149	0.01236	0.04715	-0.63355	-1.1327	0.11185	0.072174	0.2359	0.03006	0.08316	-0.005493	0.298	0.06546	0.076141	0.80215	-0.24765	0.004578	-0.036926
44.497	0.003967	-0.019073	0.24841	-0.013123	0.011139	-0.019836	0.23972	0.01358	0.007629	-0.0383	-0.076599	0.005341	-0.1268	-0.018311	0.47363	0.010681	0.053101	-0.45944	-1.4096	0.22415	0.36728	0.055847	0.001373	0.043182	0.08316	0.18646	-0.038452	-0.019836	1.6985	-0.48614	0.001526	-0.041656
44.498	-0.00061	0.016174	0.22354	-0.005798	0.010071	-0.000458	0.29098	0.00885	0.017242	0.002594	-0.12497	0.006104	-0.12375	0.011749	0.36713	-0.007019	0.070343	-0.27863	-1.6425	0.15915	0.17212	-0.21439	-0.03006	0.062561	0.091095	-0.03891	-0.10117	-0.030975	1.1731	-0.3244	0.000763	-0.033112
44.499	-0.018005	0.015411	0.23086	0.006561	0.011444	-0.02594	0.28229	0.003204	0.007019	-0.0383	-0.11749	0.003967	-0.10422	0.071106	0.35538	-0.005341	0.093536	-0.099182	-1.8166	0.093079	-0.16235	-0.45136	0.019531	0.14236	0.11932	0.1326	0.022278	-0.09552	-0.042725	0.22125	0.002747	-0.027313
44.5	-0.027466	0.023193	0.22659	0.004425	-0.001373	-0.013733	0.21927	0.009003	-0.010681	-0.040131	0.12772	0.006104	-0.037537	0.13153	0.020142	-0.010681	0.10468	-0.12299	-1.2556	0.023804	-0.42358	-0.44876	0.027161	0.070953	0.10712	0.056152	0.12161	-0.11231	-0.17258	0.1738	0.00473	-0.019989
44.501	-0.016174	0.08255	0.22247	-0.010071	0.004883	-0.01358	0.15243	0.007172	-0.021362	-0.12924	0.44235	0.007629	-0.037537	0.16785	0.18387	-0.001068	0.16052	-0.044403	-1.0394	0.022125	0.11597	-0.45013	0.075073	-0.043945	0.061493	0.004578	0.12833	-0.11032	-0.24429	0.073547	0.000458	-0.019226
44.502	-0.003357	0.15839	0.2272	-0.050201	0.003662	-0.030365	0.1831	0.012512	-0.032806	-0.068665	0.39322	0.006561	-0.10529	0.10544	-0.10834	-0.015106	0.14053	0.11017	-1.129	-0.059814	0.13168	-0.27313	-0.009613	-0.10788	0.090485	-0.062408	0.057526	-0.11444	-0.18097	0.072479	-0.003815	-0.009003
44.503	-0.006561	0.24094	0.24185	-0.033722	0.002441	-0.04364	0.20294	0.022736	-0.053101	-0.027008	0.22964	-0.001373	-0.10101	0.04715	-0.14801	-0.029144	0.038605	0.29999	-1.3115	-0.024109	-0.19913	0.039978	-0.005493	-0.075073	0.12543	-0.048676	-0.045319	-0.072784	-0.17838	0.24155	0.005493	0.004272
44.504	-0.008698	0.23727	0.22247	-0.016174	0.011444	-0.053864	0.17807	0.012054	-0.042114	-0.011444	-0.23239	0.002594	-0.12695	0.056	-0.47577	-0.016022	-0.02533	0.54688	-1.1624	-0.014648	-0.4245	0.30045	0.070953	-0.043793	0.089417	0.020599	-0.086212	0.061188	-0.4808	0.081635	-0.009613	-0.001831
44.505	-0.006866	0.15961	0.21698	-0.017242	0.012665	-0.071716	0.19714	0.007019	-0.042725	-0.007019	-0.4985	0.005646	-0.079803	0.099182	-0.19394	-0.015717	-0.094299	0.62134	-1.1154	0.031128	-0.082855	0.61905	0.063782	0.1358	0.11704	-0.053558	-0.008392	0.099792	-0.6015	-0.5246	0.001221	-0.021057
44.506	-0.009003	0.10986	0.18112	-0.030518	0.012207	-0.08606	0.15503	0.005341	-0.063324	0.033264	-0.26749	0.00351	-0.14435	0.14603	0.16464	-0.010986	-0.10559	0.49957	-0.99396	0.12726	0.24109	0.52902	0.068207	0.28153	0.078125	-0.12405	0.033722	0.00351	-0.35126	-0.76157	0.001678	-0.016785
44.507	-0.00824	0.068207	0.15442	-0.025024	0.009155	-0.081482	0.14893	0.010834	-0.067444	0.033569	-0.021057	0.000153	-0.17624	0.1918	0.64926	-0.019836	-0.071564	0.5188	-1.1372	0.15381	0.43366	0.21225	0.057373	0.35934	0.04837	-0.088348	0.03006	-0.051422	-0.33356	-0.74524	-0.004883	-0.018463
44.508	-0.005493	0.11414	0.12283	0.005951	0.001984	-0.078278	0.11231	0.005493	-0.078583	-0.018005	0.27634	0.006561	-0.1062	0.10269	0.62286	-0.001984	-0.019684	0.54306	-0.85159	0.10147	0.31906	-0.000763	0.0383	0.29999	0.051117	0.027618	0.023804	-0.11704	-0.096283	-0.10193	-0.005035	-0.021515
44.509	-0.00824	0.12909	0.16083	0.00946	-0.019836	-0.081787	0.067139	0.007782	-0.084076	-0.065002	0.23392	0.005798	-0.020599	0.11169	-0.03479	0.004272	0.015717	0.43655	-0.168	-0.002747	0.1535	-0.47028	0.14893	0.12909	0.007172	-0.071106	0.021515	-0.2858	0.11017	0.52765	0.001984	-0.016327
44.51	-0.006409	0.15488	0.16022	0.024109	-0.00061	-0.068817	0.043488	-0.001678	-0.1152	-0.067291	0.11841	0.00351	-0.027313	0.11231	-0.69412	-0.007019	0.055695	0.46539	0.77423	-0.052948	0.17273	-0.56366	0.26382	-0.097961	-0.041962	-0.02243	0.002136	-0.17777	0.12589	0.72678	0.000763	-0.016022
44.511	-0.009155	0.18295	0.1326	0.055542	0.014954	-0.058746	0.092316	0.001221	-0.14603	-0.03952	0.071259	-0.000458	-0.058899	0.060883	-0.70892	-0.005646	0.00885	0.36728	0.31067	0.05127	0.000305	-0.10315	0.079346	0.057831	-0.019836	0.11963	-0.009766	0.10162	0.13229	0.81375	0.009308	-0.019836
44.512	0.001831	0.23666	0.12421	0.06012	0.023651	-0.002136	0.11047	0.008392	-0.16205	-0.007019	-0.10361	0.012054	-0.054016	0.031433	0.22842	-0.015564	-0.023041	0.008392	-0.56259	0.076141	0.13809	-0.08255	-0.094452	0.23483	0.012817	0.074921	-0.000305	0.093231	0.053864	0.85388	-0.002441	-0.015411
44.513	-0.008545	0.2858	0.1001	0.004578	0.017242	0.007782	0.11276	0.013275	-0.15915	0.008698	-0.12451	0.003204	-0.042572	-0.073853	-0.14008	0.005798	-0.01709	-0.21057	-0.4773	0.036316	0.03952	-0.17975	-0.001831	0.2272	0.002899	0.074463	-0.016785	-0.065613	-0.058289	0.30762	-0.001373	-0.012207
44.514	-0.018005	0.3743	0.11139	-0.018921	0.006714	-0.014954	0.11612	0.015411	-0.15808	-0.014343	-0.18936	-0.001068	0.045929	-0.11963	0.40283	0.022125	-0.037231	-0.51651	-0.23209	-0.04303	0.031433	-0.13458	0.25879	0.1944	-0.032501	0.067139	0.007019	0.054474	-0.13992	0.007019	-0.00473	-0.010834
44.515	-0.023193	0.42435	0.12405	-0.050659	-0.000153	-0.071106	0.12405	0.022888	-0.18249	-0.016785	0.033417	0.005646	0.10773	-0.081177	0.66376	0.02182	-0.060883	-0.72174	0.23514	-0.10101	-0.073547	-0.15808	0.26428	0.094757	-0.11292	0.11169	0.010376	-0.050812	-0.21698	-0.14862	-0.003662	-0.005341
44.516	-0.027618	0.48508	0.12146	-0.040131	0.006256	-0.070953	0.098267	-0.005493	-0.18723	0.003052	0.17807	0.004578	0.041809	-0.009308	-0.39566	-0.010681	-0.034332	-0.76126	0.53863	-0.055389	-0.29617	-0.28137	0.27878	-0.032654	-0.13763	0.091095	0.023193	-0.21072	-0.24704	-0.13458	-0.000305	0.003357
